# xmcd CD database file
#
# Track frame offsets:
#	183
#	12155
#	30155
#	47798
#	64288
#	85145
#	98340
#	108238
#	117235
#	128708
#	142738
#	161813
#	178600
#	192048
#	203928
#	220963
#	243300
#	255973
#	268198
#	279528
#	282240
#	284858
#	287335
#	290190
#	293100
#	295728
#	298435
#	301208
#	303828
#	306743
#	309520
#
# Disc length: 4160 seconds
#
# Revision: 0
# Processed by: cddbd v1.5.2PL0 Copyright (c) Steve Scherf et al.
# Submitted via: CDex 1.51
#
DISCID=de103e1f
DTITLE=Bob Foster - SHADES OF GREEN - Atmosphere 13
DYEAR=1990
DGENRE=New Age
TTITLE0=The Water Garden
TTITLE1=Concern
TTITLE2=Certain Future
TTITLE3=Lacrymae
TTITLE4=New Lands
TTITLE5=Time Limit
TTITLE6=Strato Cumulus
TTITLE7=Shifting Sands
TTITLE8=September
TTITLE9=Dandelion Clock
TTITLE10=Neutral Directions
TTITLE11=Spring Waters
TTITLE12=Free Spirit
TTITLE13=Going Home
TTITLE14=Reflections In The Water
TTITLE15=Sympathy
TTITLE16=Glastonbury Fair 1
TTITLE17=Glastonbury Fair 2
TTITLE18=Song Of Isis
TTITLE19=Glastonbury Fair (Short Version)
TTITLE20=Certain Future (Short Version)
TTITLE21=Lacrymae (Short Version)
TTITLE22=New Lands (Short Version)
TTITLE23=Time Limit (Short Version)
TTITLE24=Strato Cumulus (Short Version)
TTITLE25=Shifting Sands (Short Version)
TTITLE26=September (Short Version)
TTITLE27=Neutral Directions (Short Version)
TTITLE28=Spring Waters (Short Version)
TTITLE29=Free Spirit (Short Version)
TTITLE30=Going Home (Short Version)
EXTD=YEAR: 1990
EXTT0=
EXTT1=
EXTT2=
EXTT3=
EXTT4=
EXTT5=
EXTT6=
EXTT7=
EXTT8=
EXTT9=
EXTT10=
EXTT11=
EXTT12=
EXTT13=
EXTT14=
EXTT15=
EXTT16=
EXTT17=
EXTT18=
EXTT19=
EXTT20=
EXTT21=
EXTT22=
EXTT23=
EXTT24=
EXTT25=
EXTT26=
EXTT27=
EXTT28=
EXTT29=
EXTT30=
PLAYORDER=
